<?xml version="1.0" standalone="no"?>
 <!DOCTYPE svg PUBLIC "-//W3C//DTD SVG 1.1//EN" 
 "http://www.w3.org/Graphics/SVG/1.1/DTD/svg11.dtd"> 
<svg
  xmlns:svg="http://www.w3.org/2000/svg"
  xmlns="http://www.w3.org/2000/svg"
  xmlns:xlink="http://www.w3.org/1999/xlink"
  version="1.1"
  width="124.7140mm" height="107.4420mm" viewBox="0.0000 0.0000 124.7140 107.4420">
<title>SVG Image created as swoop-mx-plate-base-plate-B_Mask.svg date 2024/04/24 16:46:04 </title>
  <desc>Image generated by PCBNEW </desc>
<g style="fill:#000000; fill-opacity:1.0000;stroke:#000000; stroke-opacity:1.0000;
stroke-linecap:round; stroke-linejoin:round;"
 transform="translate(0 0) scale(1 1)">
</g>
<g style="fill:#000000; fill-opacity:0.0; 
stroke:#000000; stroke-width:0.0000; stroke-opacity:1; 
stroke-linecap:round; stroke-linejoin:round;">
</g>
<g style="fill:#000000; fill-opacity:1.0000; 
stroke:#000000; stroke-width:0.0212; stroke-opacity:1; 
stroke-linecap:round; stroke-linejoin:round;">
<rect x="-5.000000" y="-5.000000" width="134.714000" height="117.442000" rx="0.000000" />
</g>
<g style="fill:#FFFFFF; fill-opacity:1.0000; 
stroke:#FFFFFF; stroke-width:0.0212; stroke-opacity:1; 
stroke-linecap:round; stroke-linejoin:round;">
<g >
</g>
<g style="fill:#FD0010; fill-opacity:0.4000; 
stroke:#FD0010; stroke-width:0.0212; stroke-opacity:1; 
stroke-linecap:round; stroke-linejoin:round;">
</g>
<g style="fill:#FD0010; fill-opacity:0.4000; 
stroke:#FD0010; stroke-width:0.0000; stroke-opacity:1; 
stroke-linecap:round; stroke-linejoin:round;">
<circle cx="84.1004" cy="31.5239" r="1.7500" /> 
</g>
<g style="fill:#FD0010; fill-opacity:0.4000; 
stroke:#FD0010; stroke-width:0.0212; stroke-opacity:1; 
stroke-linecap:round; stroke-linejoin:round;">
</g>
<g >
</g>
<g style="fill:#FD0010; fill-opacity:0.4000; 
stroke:#FD0010; stroke-width:0.0212; stroke-opacity:1; 
stroke-linecap:round; stroke-linejoin:round;">
</g>
<g style="fill:#FD0010; fill-opacity:0.4000; 
stroke:#FD0010; stroke-width:0.0000; stroke-opacity:1; 
stroke-linecap:round; stroke-linejoin:round;">
<circle cx="26.9504" cy="31.0244" r="1.7500" /> 
</g>
<g style="fill:#FD0010; fill-opacity:0.4000; 
stroke:#FD0010; stroke-width:0.0212; stroke-opacity:1; 
stroke-linecap:round; stroke-linejoin:round;">
</g>
<g >
</g>
<g style="fill:#FD0010; fill-opacity:0.4000; 
stroke:#FD0010; stroke-width:0.0212; stroke-opacity:1; 
stroke-linecap:round; stroke-linejoin:round;">
</g>
<g style="fill:#FD0010; fill-opacity:0.4000; 
stroke:#FD0010; stroke-width:0.0000; stroke-opacity:1; 
stroke-linecap:round; stroke-linejoin:round;">
<circle cx="26.9504" cy="69.1244" r="1.7500" /> 
</g>
<g style="fill:#FD0010; fill-opacity:0.4000; 
stroke:#FD0010; stroke-width:0.0212; stroke-opacity:1; 
stroke-linecap:round; stroke-linejoin:round;">
</g>
<g >
</g>
<g style="fill:#FD0010; fill-opacity:0.4000; 
stroke:#FD0010; stroke-width:0.0212; stroke-opacity:1; 
stroke-linecap:round; stroke-linejoin:round;">
</g>
<g style="fill:#FD0010; fill-opacity:0.4000; 
stroke:#FD0010; stroke-width:0.0000; stroke-opacity:1; 
stroke-linecap:round; stroke-linejoin:round;">
<circle cx="65.0499" cy="65.8989" r="1.7500" /> 
</g>
<g style="fill:#FD0010; fill-opacity:0.4000; 
stroke:#FD0010; stroke-width:0.0212; stroke-opacity:1; 
stroke-linecap:round; stroke-linejoin:round;">
</g>
<g >
</g>
<g style="fill:#FD0010; fill-opacity:0.4000; 
stroke:#FD0010; stroke-width:0.0212; stroke-opacity:1; 
stroke-linecap:round; stroke-linejoin:round;">
</g>
<g style="fill:#FD0010; fill-opacity:0.4000; 
stroke:#FD0010; stroke-width:0.0000; stroke-opacity:1; 
stroke-linecap:round; stroke-linejoin:round;">
<circle cx="94.3671" cy="84.1817" r="1.7500" /> 
</g>
<g style="fill:#FD0010; fill-opacity:0.4000; 
stroke:#FD0010; stroke-width:0.0212; stroke-opacity:1; 
stroke-linecap:round; stroke-linejoin:round;">
</g>
<g >
</g>
<g >
</g>
<g >
</g>
</g>
<g style="fill:#FFFFFF; fill-opacity:1.0000; 
stroke:#FFFFFF; stroke-width:0.0212; stroke-opacity:1; 
stroke-linecap:round; stroke-linejoin:round;">
</g>
<g style="fill:#2F2D31; fill-opacity:1.0000; 
stroke:#2F2D31; stroke-width:0.0212; stroke-opacity:1; 
stroke-linecap:round; stroke-linejoin:round;">
</g>
<g style="fill:#2F2D31; fill-opacity:1.0000; 
stroke:#2F2D31; stroke-width:0.0500; stroke-opacity:1; 
stroke-linecap:round; stroke-linejoin:round;">
</g>
<g style="fill:#2F2D31; fill-opacity:0.0; 
stroke:#2F2D31; stroke-width:0.0500; stroke-opacity:1; 
stroke-linecap:round; stroke-linejoin:round;">
<path d="M107.6500 34.8693
L117.4308 34.8687
" />
<path d="M7.9008 24.7247
L7.9008 80.1246
" />
<path d="M103.1499 30.6194
L103.1499 15.9236
" />
<path d="M121.9311 33.1190
L121.9308 72.9037
" />
<path d="M57.5252 4.9735 A73.4200 73.4200 0.0 0 0 8.2246 23.9880" />
<path d="M7.9008 80.1246 A0.9987 0.9987 0.0 0 0 8.3742 80.9739" />
<path d="M107.1498 33.1194 A2.0000 2.0000 0.0 0 0 105.1498 31.1193" />
<path d="M103.1499 15.9236 A1.0004 1.0004 0.0 0 0 102.5746 15.0180" />
<path d="M62.5376 88.6746
L36.4757 88.6749
" />
<path d="M106.0958 102.6297
L98.7132 98.3673
" />
<path d="M107.1500 34.3693 A0.5000 0.5000 0.0 0 0 107.6500 34.8693" />
<path d="M103.6499 31.1194
L105.1498 31.1193
" />
<path d="M107.1498 33.1194
L107.1500 34.3693
" />
<path d="M102.5746 15.0180 A106.0478 106.0478 0.0 0 0 57.5252 4.9735" />
<path d="M98.7132 98.3673 A72.3541 72.3541 0.0 0 0 62.5376 88.6746" />
<path d="M117.9308 34.3687
L117.9310 33.1188
" />
<path d="M8.3742 80.9739 A55.1234 55.1234 0.0 0 0 36.4757 88.6749" />
<path d="M106.0958 102.6297 A1.0000 1.0000 0.0 0 0 107.4619 102.2637" />
<path d="M103.1499 30.6194 A0.5000 0.5000 0.0 0 0 103.6499 31.1194" />
<path d="M117.4308 34.8687 A0.5000 0.5000 0.0 0 0 117.9308 34.3687" />
<path d="M8.2246 23.9880 A0.9999 0.9999 0.0 0 0 7.9008 24.7247" />
<path d="M121.9311 33.1190 A2.0000 2.0000 0.0 0 0 119.9311 31.1188" />
<path d="M120.1841 80.2279 A16.7745 16.7745 0.0 0 0 121.9308 72.9037" />
<path d="M107.4619 102.2637
L120.1841 80.2279
" />
<path d="M119.9311 31.1188 A2.0000 2.0000 0.0 0 0 117.9310 33.1188" />
<g >
</g>
<g >
</g>
<g >
</g>
<g >
</g>
<g >
</g>
<g >
</g>
<g >
</g>
<g >
</g>
</g> 
</svg>
