<?xml version="1.0" standalone="no"?>
 <!DOCTYPE svg PUBLIC "-//W3C//DTD SVG 1.1//EN" 
 "http://www.w3.org/Graphics/SVG/1.1/DTD/svg11.dtd"> 
<svg
  xmlns:svg="http://www.w3.org/2000/svg"
  xmlns="http://www.w3.org/2000/svg"
  xmlns:xlink="http://www.w3.org/1999/xlink"
  version="1.1"
  width="108.2548mm" height="97.8154mm" viewBox="0.0000 0.0000 108.2548 97.8154">
<title>SVG Image created as swoop-mx-plate-switch-plate-B_Mask.svg date 2024/03/10 23:49:04 </title>
  <desc>Image generated by PCBNEW </desc>
<g style="fill:#000000; fill-opacity:1.0000;stroke:#000000; stroke-opacity:1.0000;
stroke-linecap:round; stroke-linejoin:round;"
 transform="translate(0 0) scale(1 1)">
</g>
<g style="fill:#000000; fill-opacity:0.0; 
stroke:#000000; stroke-width:0.0000; stroke-opacity:1; 
stroke-linecap:round; stroke-linejoin:round;">
</g>
<g style="fill:#000000; fill-opacity:1.0000; 
stroke:#000000; stroke-width:0.0212; stroke-opacity:1; 
stroke-linecap:round; stroke-linejoin:round;">
<rect x="-5.015223" y="-5.000000" width="118.270023" height="107.840238" rx="0.000000" />
</g>
<g style="fill:#FFFFFF; fill-opacity:1.0000; 
stroke:#FFFFFF; stroke-width:0.0212; stroke-opacity:1; 
stroke-linecap:round; stroke-linejoin:round;">
<g >
</g>
<g style="fill:#FFFFFF; fill-opacity:1.0000; 
stroke:#FFFFFF; stroke-width:0.0000; stroke-opacity:1; 
stroke-linecap:round; stroke-linejoin:round;">
<circle cx="32.0302" cy="26.5754" r="1.7500" /> 
</g>
<g style="fill:#FFFFFF; fill-opacity:1.0000; 
stroke:#FFFFFF; stroke-width:0.0212; stroke-opacity:1; 
stroke-linecap:round; stroke-linejoin:round;">
</g>
<g >
</g>
<g >
</g>
<g style="fill:#FFFFFF; fill-opacity:1.0000; 
stroke:#FFFFFF; stroke-width:0.0212; stroke-opacity:1; 
stroke-linecap:round; stroke-linejoin:round;">
</g>
<g style="fill:#FFFFFF; fill-opacity:1.0000; 
stroke:#FFFFFF; stroke-width:0.0000; stroke-opacity:1; 
stroke-linecap:round; stroke-linejoin:round;">
<circle cx="89.1802" cy="26.0759" r="1.7500" /> 
</g>
<g style="fill:#FFFFFF; fill-opacity:1.0000; 
stroke:#FFFFFF; stroke-width:0.0212; stroke-opacity:1; 
stroke-linecap:round; stroke-linejoin:round;">
</g>
<g >
</g>
<g >
</g>
<g >
</g>
<g >
</g>
<g >
</g>
<g >
</g>
<g >
</g>
<g >
</g>
<g >
</g>
<g >
</g>
<g >
</g>
<g >
</g>
<g >
</g>
<g >
</g>
<g style="fill:#FFFFFF; fill-opacity:1.0000; 
stroke:#FFFFFF; stroke-width:0.0212; stroke-opacity:1; 
stroke-linecap:round; stroke-linejoin:round;">
</g>
<g style="fill:#FFFFFF; fill-opacity:1.0000; 
stroke:#FFFFFF; stroke-width:0.0000; stroke-opacity:1; 
stroke-linecap:round; stroke-linejoin:round;">
<circle cx="89.1802" cy="64.1759" r="1.7500" /> 
</g>
<g style="fill:#FFFFFF; fill-opacity:1.0000; 
stroke:#FFFFFF; stroke-width:0.0212; stroke-opacity:1; 
stroke-linecap:round; stroke-linejoin:round;">
</g>
<g >
</g>
<g >
</g>
<g >
</g>
<g style="fill:#FFFFFF; fill-opacity:1.0000; 
stroke:#FFFFFF; stroke-width:0.0212; stroke-opacity:1; 
stroke-linecap:round; stroke-linejoin:round;">
</g>
<g style="fill:#FFFFFF; fill-opacity:1.0000; 
stroke:#FFFFFF; stroke-width:0.0000; stroke-opacity:1; 
stroke-linecap:round; stroke-linejoin:round;">
<circle cx="51.0807" cy="60.9504" r="1.7500" /> 
</g>
<g style="fill:#FFFFFF; fill-opacity:1.0000; 
stroke:#FFFFFF; stroke-width:0.0212; stroke-opacity:1; 
stroke-linecap:round; stroke-linejoin:round;">
</g>
<g >
</g>
<g style="fill:#FFFFFF; fill-opacity:1.0000; 
stroke:#FFFFFF; stroke-width:0.0212; stroke-opacity:1; 
stroke-linecap:round; stroke-linejoin:round;">
</g>
<g style="fill:#FFFFFF; fill-opacity:1.0000; 
stroke:#FFFFFF; stroke-width:0.0000; stroke-opacity:1; 
stroke-linecap:round; stroke-linejoin:round;">
<circle cx="21.7635" cy="79.2332" r="1.7500" /> 
</g>
<g style="fill:#FFFFFF; fill-opacity:1.0000; 
stroke:#FFFFFF; stroke-width:0.0212; stroke-opacity:1; 
stroke-linecap:round; stroke-linejoin:round;">
</g>
<g >
</g>
<g >
</g>
<g >
</g>
<g >
</g>
<g >
</g>
</g>
<g style="fill:#FFFFFF; fill-opacity:1.0000; 
stroke:#FFFFFF; stroke-width:0.0212; stroke-opacity:1; 
stroke-linecap:round; stroke-linejoin:round;">
</g>
<g style="fill:#FFFFFF; fill-opacity:1.0000; 
stroke:#FFFFFF; stroke-width:0.0500; stroke-opacity:1; 
stroke-linecap:round; stroke-linejoin:round;">
</g>
<g style="fill:#FFFFFF; fill-opacity:0.0; 
stroke:#FFFFFF; stroke-width:0.0500; stroke-opacity:1; 
stroke-linecap:round; stroke-linejoin:round;">
<path d="M108.2298 19.7762
L108.2298 75.1761
" />
<path d="M107.9060 19.0395 A73.4200 73.4200 0.0 0 0 58.6055 0.0250" />
<path d="M107.7564 76.0254 A0.9987 0.9987 0.0 0 0 108.2298 75.1761" />
<path d="M13.5560 10.0695 A1.0004 1.0004 0.0 0 0 12.9807 10.9751" />
<path d="M53.5930 83.7261
L79.6549 83.7264
" />
<path d="M10.0348 97.6812
L17.4175 93.4188
" />
<path d="M0.5098 81.1832 A1.0000 1.0000 0.0 0 0 0.1437 82.5492" />
<path d="M58.6055 0.0250 A106.0478 106.0478 0.0 0 0 13.5560 10.0695" />
<path d="M53.5930 83.7261 A72.3541 72.3541 0.0 0 0 17.4175 93.4188" />
<path d="M79.6549 83.7264 A55.1234 55.1234 0.0 0 0 107.7564 76.0254" />
<path d="M8.6687 97.3152 A1.0000 1.0000 0.0 0 0 10.0348 97.6812" />
<path d="M0.5098 81.1832
L12.1147 74.4825
" />
<path d="M108.2298 19.7762 A0.9999 0.9999 0.0 0 0 107.9060 19.0395" />
<path d="M12.1147 74.4825 A1.7320 1.7320 0.0 0 0 12.9810 72.9827" />
<path d="M8.6687 97.3152
L0.1437 82.5492
" />
<path d="M12.9807 10.9751
L12.9810 72.9827
" />
</g>
<g style="fill:#FFFFFF; fill-opacity:0.0; 
stroke:#FFFFFF; stroke-width:0.1500; stroke-opacity:1; 
stroke-linecap:round; stroke-linejoin:round;">
<path d="M53.6052 55.6504
L53.6052 41.6504
" />
<path d="M67.6052 55.6504
L53.6052 55.6504
" />
<path d="M67.6052 55.6504
L67.6052 41.6504
" />
<path d="M67.6052 41.6504
L53.6052 41.6504
" />
<path d="M22.2174 87.7330
L15.2174 75.6086
" />
<path d="M10.0930 94.7330
L3.0930 82.6086
" />
<path d="M22.2174 87.7330
L10.0930 94.7330
" />
<path d="M15.2174 75.6086
L3.0930 82.6086
" />
<path d="M48.5552 43.1004
L48.5552 29.1004
" />
<path d="M48.5552 43.1004
L34.5552 43.1004
" />
<path d="M48.5552 29.1004
L34.5552 29.1004
" />
<path d="M34.5552 43.1004
L34.5552 29.1004
" />
<path d="M91.7052 73.6509
L91.7052 59.6509
" />
<path d="M105.7052 73.6509
L91.7052 73.6509
" />
<path d="M105.7052 73.6509
L105.7052 59.6509
" />
<path d="M105.7052 59.6509
L91.7052 59.6509
" />
<path d="M29.5052 31.6004
L15.5052 31.6004
" />
<path d="M29.5052 45.6004
L15.5052 45.6004
" />
<path d="M15.5052 45.6004
L15.5052 31.6004
" />
<path d="M29.5052 45.6004
L29.5052 31.6004
" />
<path d="M91.7052 54.6009
L91.7052 40.6009
" />
<path d="M105.7052 54.6009
L105.7052 40.6009
" />
<path d="M105.7052 40.6009
L91.7052 40.6009
" />
<path d="M105.7052 54.6009
L91.7052 54.6009
" />
<path d="M86.6552 61.6509
L86.6552 47.6509
" />
<path d="M86.6552 61.6509
L72.6552 61.6509
" />
<path d="M86.6552 47.6509
L72.6552 47.6509
" />
<path d="M72.6552 61.6509
L72.6552 47.6509
" />
<path d="M67.6052 3.5504
L53.6052 3.5504
" />
<path d="M67.6052 17.5504
L53.6052 17.5504
" />
<path d="M67.6052 17.5504
L67.6052 3.5504
" />
<path d="M53.6052 17.5504
L53.6052 3.5504
" />
<path d="M15.5052 26.5504
L15.5052 12.5504
" />
<path d="M29.5052 12.5504
L15.5052 12.5504
" />
<path d="M29.5052 26.5504
L15.5052 26.5504
" />
<path d="M29.5052 26.5504
L29.5052 12.5504
" />
<path d="M60.5931 81.2009
L60.5931 67.2009
" />
<path d="M60.5931 81.2009
L46.5931 81.2009
" />
<path d="M60.5931 67.2009
L46.5931 67.2009
" />
<path d="M46.5931 81.2009
L46.5931 67.2009
" />
<path d="M105.7052 35.5509
L91.7052 35.5509
" />
<path d="M105.7052 35.5509
L105.7052 21.5509
" />
<path d="M91.7052 35.5509
L91.7052 21.5509
" />
<path d="M105.7052 21.5509
L91.7052 21.5509
" />
<path d="M48.5552 62.1504
L48.5552 48.1504
" />
<path d="M48.5552 62.1504
L34.5552 62.1504
" />
<path d="M34.5552 62.1504
L34.5552 48.1504
" />
<path d="M48.5552 48.1504
L34.5552 48.1504
" />
<path d="M86.6552 42.6009
L72.6552 42.6009
" />
<path d="M86.6552 42.6009
L86.6552 28.6009
" />
<path d="M72.6552 42.6009
L72.6552 28.6009
" />
<path d="M86.6552 28.6009
L72.6552 28.6009
" />
<path d="M48.5552 10.0504
L34.5552 10.0504
" />
<path d="M34.5552 24.0504
L34.5552 10.0504
" />
<path d="M48.5552 24.0504
L34.5552 24.0504
" />
<path d="M48.5552 24.0504
L48.5552 10.0504
" />
<path d="M37.3519 68.4179
L23.8289 72.0414
" />
<path d="M27.4524 85.5643
L23.8289 72.0414
" />
<path d="M40.9754 81.9409
L37.3519 68.4179
" />
<path d="M40.9754 81.9409
L27.4524 85.5643
" />
<path d="M67.6052 36.6004
L67.6052 22.6004
" />
<path d="M67.6052 22.6004
L53.6052 22.6004
" />
<path d="M67.6052 36.6004
L53.6052 36.6004
" />
<path d="M53.6052 36.6004
L53.6052 22.6004
" />
<path d="M29.5052 64.6504
L29.5052 50.6504
" />
<path d="M29.5052 50.6504
L15.5052 50.6504
" />
<path d="M29.5052 64.6504
L15.5052 64.6504
" />
<path d="M15.5052 64.6504
L15.5052 50.6504
" />
<path d="M86.6552 23.5509
L72.6552 23.5509
" />
<path d="M86.6552 9.5509
L72.6552 9.5509
" />
<path d="M72.6552 23.5509
L72.6552 9.5509
" />
<path d="M86.6552 23.5509
L86.6552 9.5509
" />
<g >
</g>
<g >
</g>
<g >
</g>
<g >
</g>
<g >
</g>
<g >
</g>
<g >
</g>
<g >
</g>
<g >
</g>
<g >
</g>
<g >
</g>
<g >
</g>
<g >
</g>
<g >
</g>
<g >
</g>
<g >
</g>
<g >
</g>
<g >
</g>
<g >
</g>
<g >
</g>
<g >
</g>
<g >
</g>
<g >
</g>
<g >
</g>
<g >
</g>
<g >
</g>
</g> 
</svg>
