<?xml version="1.0" standalone="no"?>
 <!DOCTYPE svg PUBLIC "-//W3C//DTD SVG 1.1//EN" 
 "http://www.w3.org/Graphics/SVG/1.1/DTD/svg11.dtd"> 
<svg
  xmlns:svg="http://www.w3.org/2000/svg"
  xmlns="http://www.w3.org/2000/svg"
  xmlns:xlink="http://www.w3.org/1999/xlink"
  version="1.1"
  width="108.2548mm" height="97.8154mm" viewBox="0.0000 0.0000 108.2548 97.8154">
<title>SVG Image created as swoop-mx-plate-switch-plate-B_Mask.svg date 2024/03/10 23:48:02 </title>
  <desc>Image generated by PCBNEW </desc>
<g style="fill:#000000; fill-opacity:1.0000;stroke:#000000; stroke-opacity:1.0000;
stroke-linecap:round; stroke-linejoin:round;"
 transform="translate(0 0) scale(1 1)">
</g>
<g style="fill:#000000; fill-opacity:0.0; 
stroke:#000000; stroke-width:0.0000; stroke-opacity:1; 
stroke-linecap:round; stroke-linejoin:round;">
</g>
<g style="fill:#000000; fill-opacity:1.0000; 
stroke:#000000; stroke-width:0.0212; stroke-opacity:1; 
stroke-linecap:round; stroke-linejoin:round;">
<rect x="-5.000000" y="-5.000000" width="118.270023" height="107.840238" rx="0.000000" />
</g>
<g style="fill:#FFFFFF; fill-opacity:1.0000; 
stroke:#FFFFFF; stroke-width:0.0212; stroke-opacity:1; 
stroke-linecap:round; stroke-linejoin:round;">
<g >
</g>
<g style="fill:#FFFFFF; fill-opacity:1.0000; 
stroke:#FFFFFF; stroke-width:0.0000; stroke-opacity:1; 
stroke-linecap:round; stroke-linejoin:round;">
<circle cx="76.2246" cy="26.5754" r="1.7500" /> 
</g>
<g style="fill:#FFFFFF; fill-opacity:1.0000; 
stroke:#FFFFFF; stroke-width:0.0212; stroke-opacity:1; 
stroke-linecap:round; stroke-linejoin:round;">
</g>
<g >
</g>
<g >
</g>
<g style="fill:#FFFFFF; fill-opacity:1.0000; 
stroke:#FFFFFF; stroke-width:0.0212; stroke-opacity:1; 
stroke-linecap:round; stroke-linejoin:round;">
</g>
<g style="fill:#FFFFFF; fill-opacity:1.0000; 
stroke:#FFFFFF; stroke-width:0.0000; stroke-opacity:1; 
stroke-linecap:round; stroke-linejoin:round;">
<circle cx="19.0746" cy="26.0759" r="1.7500" /> 
</g>
<g style="fill:#FFFFFF; fill-opacity:1.0000; 
stroke:#FFFFFF; stroke-width:0.0212; stroke-opacity:1; 
stroke-linecap:round; stroke-linejoin:round;">
</g>
<g >
</g>
<g >
</g>
<g >
</g>
<g >
</g>
<g >
</g>
<g >
</g>
<g >
</g>
<g >
</g>
<g >
</g>
<g >
</g>
<g >
</g>
<g >
</g>
<g >
</g>
<g >
</g>
<g style="fill:#FFFFFF; fill-opacity:1.0000; 
stroke:#FFFFFF; stroke-width:0.0212; stroke-opacity:1; 
stroke-linecap:round; stroke-linejoin:round;">
</g>
<g style="fill:#FFFFFF; fill-opacity:1.0000; 
stroke:#FFFFFF; stroke-width:0.0000; stroke-opacity:1; 
stroke-linecap:round; stroke-linejoin:round;">
<circle cx="19.0746" cy="64.1759" r="1.7500" /> 
</g>
<g style="fill:#FFFFFF; fill-opacity:1.0000; 
stroke:#FFFFFF; stroke-width:0.0212; stroke-opacity:1; 
stroke-linecap:round; stroke-linejoin:round;">
</g>
<g >
</g>
<g >
</g>
<g >
</g>
<g style="fill:#FFFFFF; fill-opacity:1.0000; 
stroke:#FFFFFF; stroke-width:0.0212; stroke-opacity:1; 
stroke-linecap:round; stroke-linejoin:round;">
</g>
<g style="fill:#FFFFFF; fill-opacity:1.0000; 
stroke:#FFFFFF; stroke-width:0.0000; stroke-opacity:1; 
stroke-linecap:round; stroke-linejoin:round;">
<circle cx="57.1741" cy="60.9504" r="1.7500" /> 
</g>
<g style="fill:#FFFFFF; fill-opacity:1.0000; 
stroke:#FFFFFF; stroke-width:0.0212; stroke-opacity:1; 
stroke-linecap:round; stroke-linejoin:round;">
</g>
<g >
</g>
<g style="fill:#FFFFFF; fill-opacity:1.0000; 
stroke:#FFFFFF; stroke-width:0.0212; stroke-opacity:1; 
stroke-linecap:round; stroke-linejoin:round;">
</g>
<g style="fill:#FFFFFF; fill-opacity:1.0000; 
stroke:#FFFFFF; stroke-width:0.0000; stroke-opacity:1; 
stroke-linecap:round; stroke-linejoin:round;">
<circle cx="86.4913" cy="79.2332" r="1.7500" /> 
</g>
<g style="fill:#FFFFFF; fill-opacity:1.0000; 
stroke:#FFFFFF; stroke-width:0.0212; stroke-opacity:1; 
stroke-linecap:round; stroke-linejoin:round;">
</g>
<g >
</g>
<g >
</g>
<g >
</g>
<g >
</g>
<g >
</g>
</g>
<g style="fill:#FFFFFF; fill-opacity:1.0000; 
stroke:#FFFFFF; stroke-width:0.0212; stroke-opacity:1; 
stroke-linecap:round; stroke-linejoin:round;">
</g>
<g style="fill:#FFFFFF; fill-opacity:1.0000; 
stroke:#FFFFFF; stroke-width:0.0500; stroke-opacity:1; 
stroke-linecap:round; stroke-linejoin:round;">
</g>
<g style="fill:#FFFFFF; fill-opacity:0.0; 
stroke:#FFFFFF; stroke-width:0.0500; stroke-opacity:1; 
stroke-linecap:round; stroke-linejoin:round;">
<path d="M0.0250 19.7762
L0.0250 75.1761
" />
<path d="M49.6493 0.0250 A73.4200 73.4200 0.0 0 0 0.3488 19.0395" />
<path d="M0.0250 75.1761 A0.9987 0.9987 0.0 0 0 0.4984 76.0254" />
<path d="M95.2741 10.9751 A1.0004 1.0004 0.0 0 0 94.6988 10.0695" />
<path d="M54.6618 83.7261
L28.5999 83.7264
" />
<path d="M98.2200 97.6812
L90.8373 93.4188
" />
<path d="M108.1111 82.5492 A1.0000 1.0000 0.0 0 0 107.7450 81.1832" />
<path d="M94.6988 10.0695 A106.0478 106.0478 0.0 0 0 49.6493 0.0250" />
<path d="M90.8373 93.4188 A72.3541 72.3541 0.0 0 0 54.6618 83.7261" />
<path d="M0.4984 76.0254 A55.1234 55.1234 0.0 0 0 28.5999 83.7264" />
<path d="M98.2200 97.6812 A1.0000 1.0000 0.0 0 0 99.5861 97.3152" />
<path d="M107.7450 81.1832
L96.1401 74.4825
" />
<path d="M0.3488 19.0395 A0.9999 0.9999 0.0 0 0 0.0250 19.7762" />
<path d="M95.2738 72.9827 A1.7320 1.7320 0.0 0 0 96.1401 74.4825" />
<path d="M99.5861 97.3152
L108.1111 82.5492
" />
<path d="M95.2741 10.9751
L95.2738 72.9827
" />
</g>
<g style="fill:#FFFFFF; fill-opacity:0.0; 
stroke:#FFFFFF; stroke-width:0.1500; stroke-opacity:1; 
stroke-linecap:round; stroke-linejoin:round;">
<path d="M54.6496 55.6504
L54.6496 41.6504
" />
<path d="M40.6496 55.6504
L54.6496 55.6504
" />
<path d="M40.6496 55.6504
L40.6496 41.6504
" />
<path d="M40.6496 41.6504
L54.6496 41.6504
" />
<path d="M86.0374 87.7330
L93.0374 75.6086
" />
<path d="M98.1617 94.7330
L105.1617 82.6086
" />
<path d="M86.0374 87.7330
L98.1617 94.7330
" />
<path d="M93.0374 75.6086
L105.1617 82.6086
" />
<path d="M59.6996 43.1004
L59.6996 29.1004
" />
<path d="M59.6996 43.1004
L73.6996 43.1004
" />
<path d="M59.6996 29.1004
L73.6996 29.1004
" />
<path d="M73.6996 43.1004
L73.6996 29.1004
" />
<path d="M16.5496 73.6509
L16.5496 59.6509
" />
<path d="M2.5496 73.6509
L16.5496 73.6509
" />
<path d="M2.5496 73.6509
L2.5496 59.6509
" />
<path d="M2.5496 59.6509
L16.5496 59.6509
" />
<path d="M78.7496 31.6004
L92.7496 31.6004
" />
<path d="M78.7496 45.6004
L92.7496 45.6004
" />
<path d="M92.7496 45.6004
L92.7496 31.6004
" />
<path d="M78.7496 45.6004
L78.7496 31.6004
" />
<path d="M16.5496 54.6009
L16.5496 40.6009
" />
<path d="M2.5496 54.6009
L2.5496 40.6009
" />
<path d="M2.5496 40.6009
L16.5496 40.6009
" />
<path d="M2.5496 54.6009
L16.5496 54.6009
" />
<path d="M21.5996 61.6509
L21.5996 47.6509
" />
<path d="M21.5996 61.6509
L35.5996 61.6509
" />
<path d="M21.5996 47.6509
L35.5996 47.6509
" />
<path d="M35.5996 61.6509
L35.5996 47.6509
" />
<path d="M40.6496 3.5504
L54.6496 3.5504
" />
<path d="M40.6496 17.5504
L54.6496 17.5504
" />
<path d="M40.6496 17.5504
L40.6496 3.5504
" />
<path d="M54.6496 17.5504
L54.6496 3.5504
" />
<path d="M92.7496 26.5504
L92.7496 12.5504
" />
<path d="M78.7496 12.5504
L92.7496 12.5504
" />
<path d="M78.7496 26.5504
L92.7496 26.5504
" />
<path d="M78.7496 26.5504
L78.7496 12.5504
" />
<path d="M47.6617 81.2009
L47.6617 67.2009
" />
<path d="M47.6617 81.2009
L61.6617 81.2009
" />
<path d="M47.6617 67.2009
L61.6617 67.2009
" />
<path d="M61.6617 81.2009
L61.6617 67.2009
" />
<path d="M2.5496 35.5509
L16.5496 35.5509
" />
<path d="M2.5496 35.5509
L2.5496 21.5509
" />
<path d="M16.5496 35.5509
L16.5496 21.5509
" />
<path d="M2.5496 21.5509
L16.5496 21.5509
" />
<path d="M59.6996 62.1504
L59.6996 48.1504
" />
<path d="M59.6996 62.1504
L73.6996 62.1504
" />
<path d="M73.6996 62.1504
L73.6996 48.1504
" />
<path d="M59.6996 48.1504
L73.6996 48.1504
" />
<path d="M21.5996 42.6009
L35.5996 42.6009
" />
<path d="M21.5996 42.6009
L21.5996 28.6009
" />
<path d="M35.5996 42.6009
L35.5996 28.6009
" />
<path d="M21.5996 28.6009
L35.5996 28.6009
" />
<path d="M59.6996 10.0504
L73.6996 10.0504
" />
<path d="M73.6996 24.0504
L73.6996 10.0504
" />
<path d="M59.6996 24.0504
L73.6996 24.0504
" />
<path d="M59.6996 24.0504
L59.6996 10.0504
" />
<path d="M70.9029 68.4179
L84.4259 72.0414
" />
<path d="M80.8024 85.5643
L84.4259 72.0414
" />
<path d="M67.2794 81.9409
L70.9029 68.4179
" />
<path d="M67.2794 81.9409
L80.8024 85.5643
" />
<path d="M40.6496 36.6004
L40.6496 22.6004
" />
<path d="M40.6496 22.6004
L54.6496 22.6004
" />
<path d="M40.6496 36.6004
L54.6496 36.6004
" />
<path d="M54.6496 36.6004
L54.6496 22.6004
" />
<path d="M78.7496 64.6504
L78.7496 50.6504
" />
<path d="M78.7496 50.6504
L92.7496 50.6504
" />
<path d="M78.7496 64.6504
L92.7496 64.6504
" />
<path d="M92.7496 64.6504
L92.7496 50.6504
" />
<path d="M21.5996 23.5509
L35.5996 23.5509
" />
<path d="M21.5996 9.5509
L35.5996 9.5509
" />
<path d="M35.5996 23.5509
L35.5996 9.5509
" />
<path d="M21.5996 23.5509
L21.5996 9.5509
" />
<g >
</g>
<g >
</g>
<g >
</g>
<g >
</g>
<g >
</g>
<g >
</g>
<g >
</g>
<g >
</g>
<g >
</g>
<g >
</g>
<g >
</g>
<g >
</g>
<g >
</g>
<g >
</g>
<g >
</g>
<g >
</g>
<g >
</g>
<g >
</g>
<g >
</g>
<g >
</g>
<g >
</g>
<g >
</g>
<g >
</g>
<g >
</g>
<g >
</g>
<g >
</g>
</g> 
</svg>
