<?xml version="1.0" standalone="no"?>
 <!DOCTYPE svg PUBLIC "-//W3C//DTD SVG 1.1//EN" 
 "http://www.w3.org/Graphics/SVG/1.1/DTD/svg11.dtd"> 
<svg
  xmlns:svg="http://www.w3.org/2000/svg"
  xmlns="http://www.w3.org/2000/svg"
  xmlns:xlink="http://www.w3.org/1999/xlink"
  version="1.1"
  width="117.0940mm" height="103.8860mm" viewBox="0.0000 0.0000 117.0940 103.8860">
<title>SVG Image created as swoop-mx-plate-switch-plate-Edge_Cuts.svg date 2024/03/10 23:43:00 </title>
  <desc>Image generated by PCBNEW </desc>
<g style="fill:#000000; fill-opacity:1.0000;stroke:#000000; stroke-opacity:1.0000;
stroke-linecap:round; stroke-linejoin:round;"
 transform="translate(0 0) scale(1 1)">
</g>
<g style="fill:#000000; fill-opacity:0.0; 
stroke:#000000; stroke-width:0.0000; stroke-opacity:1; 
stroke-linecap:round; stroke-linejoin:round;">
</g>
<g style="fill:#000000; fill-opacity:1.0000; 
stroke:#000000; stroke-width:0.0212; stroke-opacity:1; 
stroke-linecap:round; stroke-linejoin:round;">
<rect x="-5.000000" y="-5.000000" width="127.094000" height="113.886000" rx="0.000000" />
</g>
<g style="fill:#FFFFFF; fill-opacity:1.0000; 
stroke:#FFFFFF; stroke-width:0.0212; stroke-opacity:1; 
stroke-linecap:round; stroke-linejoin:round;">
</g>
<g style="fill:#FFFFFF; fill-opacity:1.0000; 
stroke:#FFFFFF; stroke-width:0.0500; stroke-opacity:1; 
stroke-linecap:round; stroke-linejoin:round;">
</g>
<g style="fill:#FFFFFF; fill-opacity:0.0; 
stroke:#FFFFFF; stroke-width:0.0500; stroke-opacity:1; 
stroke-linecap:round; stroke-linejoin:round;">
<path d="M3.8368 22.1847
L3.8368 77.5846
" />
<path d="M53.4612 2.4335 A73.4200 73.4200 0.0 0 0 4.1606 21.4480" />
<path d="M3.8368 77.5846 A0.9987 0.9987 0.0 0 0 4.3102 78.4339" />
<path d="M99.0859 13.3836 A1.0004 1.0004 0.0 0 0 98.5106 12.4780" />
<path d="M58.4736 86.1346
L32.4117 86.1349
" />
<path d="M102.0318 100.0897
L94.6492 95.8273
" />
<path d="M111.9229 84.9577 A1.0000 1.0000 0.0 0 0 111.5568 83.5917" />
<path d="M98.5106 12.4780 A106.0478 106.0478 0.0 0 0 53.4612 2.4335" />
<path d="M94.6492 95.8273 A72.3541 72.3541 0.0 0 0 58.4736 86.1346" />
<path d="M4.3102 78.4339 A55.1234 55.1234 0.0 0 0 32.4117 86.1349" />
<path d="M102.0318 100.0897 A1.0000 1.0000 0.0 0 0 103.3979 99.7237" />
<path d="M111.5568 83.5917
L99.9519 76.8910
" />
<path d="M4.1606 21.4480 A0.9999 0.9999 0.0 0 0 3.8368 22.1847" />
<path d="M99.0856 75.3912 A1.7320 1.7320 0.0 0 0 99.9519 76.8910" />
<path d="M103.3979 99.7237
L111.9229 84.9577
" />
<path d="M99.0859 13.3836
L99.0856 75.3912
" />
</g>
<g style="fill:#FFFFFF; fill-opacity:0.0; 
stroke:#FFFFFF; stroke-width:0.1500; stroke-opacity:1; 
stroke-linecap:round; stroke-linejoin:round;">
<path d="M58.4614 58.0589
L58.4614 44.0589
" />
<path d="M44.4614 58.0589
L58.4614 58.0589
" />
<path d="M44.4614 58.0589
L44.4614 44.0589
" />
<path d="M44.4614 44.0589
L58.4614 44.0589
" />
<path d="M89.8492 90.1415
L96.8492 78.0171
" />
<path d="M101.9736 97.1415
L108.9736 85.0171
" />
<path d="M89.8492 90.1415
L101.9736 97.1415
" />
<path d="M96.8492 78.0171
L108.9736 85.0171
" />
<path d="M63.5114 45.5089
L63.5114 31.5089
" />
<path d="M63.5114 45.5089
L77.5114 45.5089
" />
<path d="M63.5114 31.5089
L77.5114 31.5089
" />
<path d="M77.5114 45.5089
L77.5114 31.5089
" />
<path d="M20.3614 76.0594
L20.3614 62.0594
" />
<path d="M6.3614 76.0594
L20.3614 76.0594
" />
<path d="M6.3614 76.0594
L6.3614 62.0594
" />
<path d="M6.3614 62.0594
L20.3614 62.0594
" />
<path d="M82.5614 34.0089
L96.5614 34.0089
" />
<path d="M82.5614 48.0089
L96.5614 48.0089
" />
<path d="M96.5614 48.0089
L96.5614 34.0089
" />
<path d="M82.5614 48.0089
L82.5614 34.0089
" />
<path d="M20.3614 57.0094
L20.3614 43.0094
" />
<path d="M6.3614 57.0094
L6.3614 43.0094
" />
<path d="M6.3614 43.0094
L20.3614 43.0094
" />
<path d="M6.3614 57.0094
L20.3614 57.0094
" />
<path d="M25.4114 64.0594
L25.4114 50.0594
" />
<path d="M25.4114 64.0594
L39.4114 64.0594
" />
<path d="M25.4114 50.0594
L39.4114 50.0594
" />
<path d="M39.4114 64.0594
L39.4114 50.0594
" />
<path d="M44.4614 5.9589
L58.4614 5.9589
" />
<path d="M44.4614 19.9589
L58.4614 19.9589
" />
<path d="M44.4614 19.9589
L44.4614 5.9589
" />
<path d="M58.4614 19.9589
L58.4614 5.9589
" />
<path d="M96.5614 28.9589
L96.5614 14.9589
" />
<path d="M82.5614 14.9589
L96.5614 14.9589
" />
<path d="M82.5614 28.9589
L96.5614 28.9589
" />
<path d="M82.5614 28.9589
L82.5614 14.9589
" />
<path d="M51.4736 83.6094
L51.4736 69.6094
" />
<path d="M51.4736 83.6094
L65.4736 83.6094
" />
<path d="M51.4736 69.6094
L65.4736 69.6094
" />
<path d="M65.4736 83.6094
L65.4736 69.6094
" />
<path d="M6.3614 37.9594
L20.3614 37.9594
" />
<path d="M6.3614 37.9594
L6.3614 23.9594
" />
<path d="M20.3614 37.9594
L20.3614 23.9594
" />
<path d="M6.3614 23.9594
L20.3614 23.9594
" />
<path d="M63.5114 64.5589
L63.5114 50.5589
" />
<path d="M63.5114 64.5589
L77.5114 64.5589
" />
<path d="M77.5114 64.5589
L77.5114 50.5589
" />
<path d="M63.5114 50.5589
L77.5114 50.5589
" />
<path d="M25.4114 45.0094
L39.4114 45.0094
" />
<path d="M25.4114 45.0094
L25.4114 31.0094
" />
<path d="M39.4114 45.0094
L39.4114 31.0094
" />
<path d="M25.4114 31.0094
L39.4114 31.0094
" />
<path d="M63.5114 12.4589
L77.5114 12.4589
" />
<path d="M77.5114 26.4589
L77.5114 12.4589
" />
<path d="M63.5114 26.4589
L77.5114 26.4589
" />
<path d="M63.5114 26.4589
L63.5114 12.4589
" />
<path d="M74.7147 70.8264
L88.2377 74.4499
" />
<path d="M84.6142 87.9728
L88.2377 74.4499
" />
<path d="M71.0913 84.3494
L74.7147 70.8264
" />
<path d="M71.0913 84.3494
L84.6142 87.9728
" />
<path d="M44.4614 39.0089
L44.4614 25.0089
" />
<path d="M44.4614 25.0089
L58.4614 25.0089
" />
<path d="M44.4614 39.0089
L58.4614 39.0089
" />
<path d="M58.4614 39.0089
L58.4614 25.0089
" />
<path d="M82.5614 67.0589
L82.5614 53.0589
" />
<path d="M82.5614 53.0589
L96.5614 53.0589
" />
<path d="M82.5614 67.0589
L96.5614 67.0589
" />
<path d="M96.5614 67.0589
L96.5614 53.0589
" />
<path d="M25.4114 25.9594
L39.4114 25.9594
" />
<path d="M25.4114 11.9594
L39.4114 11.9594
" />
<path d="M39.4114 25.9594
L39.4114 11.9594
" />
<path d="M25.4114 25.9594
L25.4114 11.9594
" />
<g >
</g>
<g >
</g>
<g >
</g>
<g >
</g>
<g >
</g>
<g >
</g>
<g >
</g>
<g >
</g>
<g >
</g>
<g >
</g>
<g >
</g>
<g >
</g>
<g >
</g>
<g >
</g>
<g >
</g>
<g >
</g>
<g >
</g>
<g >
</g>
<g >
</g>
<g >
</g>
<g >
</g>
<g >
</g>
<g >
</g>
<g >
</g>
<g >
</g>
<g >
</g>
</g> 
</svg>
