<?xml version="1.0" standalone="no"?>
 <!DOCTYPE svg PUBLIC "-//W3C//DTD SVG 1.1//EN" 
 "http://www.w3.org/Graphics/SVG/1.1/DTD/svg11.dtd"> 
<svg
  xmlns:svg="http://www.w3.org/2000/svg"
  xmlns="http://www.w3.org/2000/svg"
  xmlns:xlink="http://www.w3.org/1999/xlink"
  version="1.1"
  width="117.0940mm" height="103.8860mm" viewBox="0.0000 0.0000 117.0940 103.8860">
<title>SVG Image created as swoop-mx-plate-switch-plate-Edge_Cuts.svg date 2024/03/10 23:43:34 </title>
  <desc>Image generated by PCBNEW </desc>
<g style="fill:#000000; fill-opacity:1.0000;stroke:#000000; stroke-opacity:1.0000;
stroke-linecap:round; stroke-linejoin:round;"
 transform="translate(0 0) scale(1 1)">
</g>
<g style="fill:#000000; fill-opacity:0.0; 
stroke:#000000; stroke-width:0.0000; stroke-opacity:1; 
stroke-linecap:round; stroke-linejoin:round;">
</g>
<g style="fill:#000000; fill-opacity:1.0000; 
stroke:#000000; stroke-width:0.0212; stroke-opacity:1; 
stroke-linecap:round; stroke-linejoin:round;">
<rect x="-5.000000" y="-5.000000" width="127.094000" height="113.886000" rx="0.000000" />
</g>
<g style="fill:#FFFFFF; fill-opacity:1.0000; 
stroke:#FFFFFF; stroke-width:0.0212; stroke-opacity:1; 
stroke-linecap:round; stroke-linejoin:round;">
</g>
<g style="fill:#FFFFFF; fill-opacity:1.0000; 
stroke:#FFFFFF; stroke-width:0.0500; stroke-opacity:1; 
stroke-linecap:round; stroke-linejoin:round;">
</g>
<g style="fill:#FFFFFF; fill-opacity:0.0; 
stroke:#FFFFFF; stroke-width:0.0500; stroke-opacity:1; 
stroke-linecap:round; stroke-linejoin:round;">
<path d="M113.2572 22.1847
L113.2572 77.5846
" />
<path d="M112.9334 21.4480 A73.4200 73.4200 0.0 0 0 63.6328 2.4335" />
<path d="M112.7838 78.4339 A0.9987 0.9987 0.0 0 0 113.2572 77.5846" />
<path d="M18.5834 12.4780 A1.0004 1.0004 0.0 0 0 18.0081 13.3836" />
<path d="M58.6204 86.1346
L84.6823 86.1349
" />
<path d="M15.0622 100.0897
L22.4448 95.8273
" />
<path d="M5.5372 83.5917 A1.0000 1.0000 0.0 0 0 5.1711 84.9577" />
<path d="M63.6328 2.4335 A106.0478 106.0478 0.0 0 0 18.5834 12.4780" />
<path d="M58.6204 86.1346 A72.3541 72.3541 0.0 0 0 22.4448 95.8273" />
<path d="M84.6823 86.1349 A55.1234 55.1234 0.0 0 0 112.7838 78.4339" />
<path d="M13.6961 99.7237 A1.0000 1.0000 0.0 0 0 15.0622 100.0897" />
<path d="M5.5372 83.5917
L17.1421 76.8910
" />
<path d="M113.2572 22.1847 A0.9999 0.9999 0.0 0 0 112.9334 21.4480" />
<path d="M17.1421 76.8910 A1.7320 1.7320 0.0 0 0 18.0084 75.3912" />
<path d="M13.6961 99.7237
L5.1711 84.9577
" />
<path d="M18.0081 13.3836
L18.0084 75.3912
" />
</g>
<g style="fill:#FFFFFF; fill-opacity:0.0; 
stroke:#FFFFFF; stroke-width:0.1500; stroke-opacity:1; 
stroke-linecap:round; stroke-linejoin:round;">
<path d="M58.6326 58.0589
L58.6326 44.0589
" />
<path d="M72.6326 58.0589
L58.6326 58.0589
" />
<path d="M72.6326 58.0589
L72.6326 44.0589
" />
<path d="M72.6326 44.0589
L58.6326 44.0589
" />
<path d="M27.2448 90.1415
L20.2448 78.0171
" />
<path d="M15.1204 97.1415
L8.1204 85.0171
" />
<path d="M27.2448 90.1415
L15.1204 97.1415
" />
<path d="M20.2448 78.0171
L8.1204 85.0171
" />
<path d="M53.5826 45.5089
L53.5826 31.5089
" />
<path d="M53.5826 45.5089
L39.5826 45.5089
" />
<path d="M53.5826 31.5089
L39.5826 31.5089
" />
<path d="M39.5826 45.5089
L39.5826 31.5089
" />
<path d="M96.7326 76.0594
L96.7326 62.0594
" />
<path d="M110.7326 76.0594
L96.7326 76.0594
" />
<path d="M110.7326 76.0594
L110.7326 62.0594
" />
<path d="M110.7326 62.0594
L96.7326 62.0594
" />
<path d="M34.5326 34.0089
L20.5326 34.0089
" />
<path d="M34.5326 48.0089
L20.5326 48.0089
" />
<path d="M20.5326 48.0089
L20.5326 34.0089
" />
<path d="M34.5326 48.0089
L34.5326 34.0089
" />
<path d="M96.7326 57.0094
L96.7326 43.0094
" />
<path d="M110.7326 57.0094
L110.7326 43.0094
" />
<path d="M110.7326 43.0094
L96.7326 43.0094
" />
<path d="M110.7326 57.0094
L96.7326 57.0094
" />
<path d="M91.6826 64.0594
L91.6826 50.0594
" />
<path d="M91.6826 64.0594
L77.6826 64.0594
" />
<path d="M91.6826 50.0594
L77.6826 50.0594
" />
<path d="M77.6826 64.0594
L77.6826 50.0594
" />
<path d="M72.6326 5.9589
L58.6326 5.9589
" />
<path d="M72.6326 19.9589
L58.6326 19.9589
" />
<path d="M72.6326 19.9589
L72.6326 5.9589
" />
<path d="M58.6326 19.9589
L58.6326 5.9589
" />
<path d="M20.5326 28.9589
L20.5326 14.9589
" />
<path d="M34.5326 14.9589
L20.5326 14.9589
" />
<path d="M34.5326 28.9589
L20.5326 28.9589
" />
<path d="M34.5326 28.9589
L34.5326 14.9589
" />
<path d="M65.6204 83.6094
L65.6204 69.6094
" />
<path d="M65.6204 83.6094
L51.6204 83.6094
" />
<path d="M65.6204 69.6094
L51.6204 69.6094
" />
<path d="M51.6204 83.6094
L51.6204 69.6094
" />
<path d="M110.7326 37.9594
L96.7326 37.9594
" />
<path d="M110.7326 37.9594
L110.7326 23.9594
" />
<path d="M96.7326 37.9594
L96.7326 23.9594
" />
<path d="M110.7326 23.9594
L96.7326 23.9594
" />
<path d="M53.5826 64.5589
L53.5826 50.5589
" />
<path d="M53.5826 64.5589
L39.5826 64.5589
" />
<path d="M39.5826 64.5589
L39.5826 50.5589
" />
<path d="M53.5826 50.5589
L39.5826 50.5589
" />
<path d="M91.6826 45.0094
L77.6826 45.0094
" />
<path d="M91.6826 45.0094
L91.6826 31.0094
" />
<path d="M77.6826 45.0094
L77.6826 31.0094
" />
<path d="M91.6826 31.0094
L77.6826 31.0094
" />
<path d="M53.5826 12.4589
L39.5826 12.4589
" />
<path d="M39.5826 26.4589
L39.5826 12.4589
" />
<path d="M53.5826 26.4589
L39.5826 26.4589
" />
<path d="M53.5826 26.4589
L53.5826 12.4589
" />
<path d="M42.3793 70.8264
L28.8563 74.4499
" />
<path d="M32.4798 87.9728
L28.8563 74.4499
" />
<path d="M46.0027 84.3494
L42.3793 70.8264
" />
<path d="M46.0027 84.3494
L32.4798 87.9728
" />
<path d="M72.6326 39.0089
L72.6326 25.0089
" />
<path d="M72.6326 25.0089
L58.6326 25.0089
" />
<path d="M72.6326 39.0089
L58.6326 39.0089
" />
<path d="M58.6326 39.0089
L58.6326 25.0089
" />
<path d="M34.5326 67.0589
L34.5326 53.0589
" />
<path d="M34.5326 53.0589
L20.5326 53.0589
" />
<path d="M34.5326 67.0589
L20.5326 67.0589
" />
<path d="M20.5326 67.0589
L20.5326 53.0589
" />
<path d="M91.6826 25.9594
L77.6826 25.9594
" />
<path d="M91.6826 11.9594
L77.6826 11.9594
" />
<path d="M77.6826 25.9594
L77.6826 11.9594
" />
<path d="M91.6826 25.9594
L91.6826 11.9594
" />
<g >
</g>
<g >
</g>
<g >
</g>
<g >
</g>
<g >
</g>
<g >
</g>
<g >
</g>
<g >
</g>
<g >
</g>
<g >
</g>
<g >
</g>
<g >
</g>
<g >
</g>
<g >
</g>
<g >
</g>
<g >
</g>
<g >
</g>
<g >
</g>
<g >
</g>
<g >
</g>
<g >
</g>
<g >
</g>
<g >
</g>
<g >
</g>
<g >
</g>
<g >
</g>
</g> 
</svg>
