<?xml version="1.0" standalone="no"?>
 <!DOCTYPE svg PUBLIC "-//W3C//DTD SVG 1.1//EN" 
 "http://www.w3.org/Graphics/SVG/1.1/DTD/svg11.dtd"> 
<svg
  xmlns:svg="http://www.w3.org/2000/svg"
  xmlns="http://www.w3.org/2000/svg"
  xmlns:xlink="http://www.w3.org/1999/xlink"
  version="1.1"
  width="0.2540mm" height="0.2540mm" viewBox="0.0000 0.0000 0.2540 0.2540">
<title>SVG Image created as swoop-mx-plate-cover-B_Mask.svg date 2024/04/24 22:36:58 </title>
  <desc>Image generated by PCBNEW </desc>
<g style="fill:#000000; fill-opacity:1.0000;stroke:#000000; stroke-opacity:1.0000;
stroke-linecap:round; stroke-linejoin:round;"
 transform="translate(0 0) scale(1 1)">
</g>
<g style="fill:#000000; fill-opacity:0.0; 
stroke:#000000; stroke-width:0.0000; stroke-opacity:1; 
stroke-linecap:round; stroke-linejoin:round;">
</g>
<g style="fill:#000000; fill-opacity:1.0000; 
stroke:#000000; stroke-width:0.0212; stroke-opacity:1; 
stroke-linecap:round; stroke-linejoin:round;">
<rect x="-5.000000" y="-5.000000" width="10.000000" height="10.000000" rx="0.000000" />
</g>
<g style="fill:#FFFFFF; fill-opacity:1.0000; 
stroke:#FFFFFF; stroke-width:0.0212; stroke-opacity:1; 
stroke-linecap:round; stroke-linejoin:round;">
<g >
</g>
<g style="fill:#FFFFFF; fill-opacity:1.0000; 
stroke:#FFFFFF; stroke-width:0.0000; stroke-opacity:1; 
stroke-linecap:round; stroke-linejoin:round;">
<circle cx="174.2872" cy="87.9830" r="1.7500" /> 
</g>
<g style="fill:#FFFFFF; fill-opacity:1.0000; 
stroke:#FFFFFF; stroke-width:0.0212; stroke-opacity:1; 
stroke-linecap:round; stroke-linejoin:round;">
</g>
<g >
</g>
<g style="fill:#FFFFFF; fill-opacity:1.0000; 
stroke:#FFFFFF; stroke-width:0.0212; stroke-opacity:1; 
stroke-linecap:round; stroke-linejoin:round;">
</g>
<g style="fill:#FFFFFF; fill-opacity:1.0000; 
stroke:#FFFFFF; stroke-width:0.0000; stroke-opacity:1; 
stroke-linecap:round; stroke-linejoin:round;">
<circle cx="159.5059" cy="87.9835" r="1.7500" /> 
</g>
<g style="fill:#FFFFFF; fill-opacity:1.0000; 
stroke:#FFFFFF; stroke-width:0.0212; stroke-opacity:1; 
stroke-linecap:round; stroke-linejoin:round;">
</g>
<g >
</g>
<g style="fill:#FFFFFF; fill-opacity:1.0000; 
stroke:#FFFFFF; stroke-width:0.0212; stroke-opacity:1; 
stroke-linecap:round; stroke-linejoin:round;">
</g>
<g style="fill:#FFFFFF; fill-opacity:1.0000; 
stroke:#FFFFFF; stroke-width:0.0000; stroke-opacity:1; 
stroke-linecap:round; stroke-linejoin:round;">
<circle cx="170.1098" cy="138.7647" r="1.7500" /> 
</g>
<g style="fill:#FFFFFF; fill-opacity:1.0000; 
stroke:#FFFFFF; stroke-width:0.0212; stroke-opacity:1; 
stroke-linecap:round; stroke-linejoin:round;">
</g>
<g >
</g>
<g >
</g>
<g >
</g>
</g>
<g style="fill:#FFFFFF; fill-opacity:1.0000; 
stroke:#FFFFFF; stroke-width:0.0212; stroke-opacity:1; 
stroke-linecap:round; stroke-linejoin:round;">
</g>
<g style="fill:#FFFFFF; fill-opacity:1.0000; 
stroke:#FFFFFF; stroke-width:0.0500; stroke-opacity:1; 
stroke-linecap:round; stroke-linejoin:round;">
</g>
<g style="fill:#FFFFFF; fill-opacity:0.0; 
stroke:#FFFFFF; stroke-width:0.0500; stroke-opacity:1; 
stroke-linecap:round; stroke-linejoin:round;">
<path d="M162.0060 89.7333
L171.7868 89.7327
" />
<path d="M176.2871 87.9830
L176.2868 127.7677
" />
<path d="M161.5058 87.9834 A2.0000 2.0000 0.0 0 0 159.5058 85.9833" />
<path d="M161.5060 89.2333 A0.5000 0.5000 0.0 0 0 162.0060 89.7333" />
<path d="M161.5058 87.9834
L161.5060 89.2333
" />
<path d="M159.5058 85.9833 A2.0000 2.0000 0.0 0 0 157.5057 87.9833" />
<path d="M172.2868 89.2327
L172.2870 87.9828
" />
<path d="M169.1102 140.4965
L158.3719 134.2950
" />
<path d="M169.1102 140.4965 A2.0001 2.0001 0.0 0 0 171.8424 139.7645" />
<path d="M171.7868 89.7327 A0.5000 0.5000 0.0 0 0 172.2868 89.2327" />
<path d="M176.2871 87.9830 A2.0000 2.0000 0.0 0 0 174.2871 85.9828" />
<path d="M174.5401 135.0919 A16.7745 16.7745 0.0 0 0 176.2868 127.7677" />
<path d="M157.5056 132.7952 A1.7320 1.7320 0.0 0 0 158.3719 134.2950" />
<path d="M171.8424 139.7645
L174.5401 135.0919
" />
<path d="M157.5057 87.9833
L157.5056 132.7952
" />
<path d="M174.2871 85.9828 A2.0000 2.0000 0.0 0 0 172.2870 87.9828" />
<g >
</g>
<g >
</g>
<g >
</g>
<g >
</g>
<g >
</g>
<g >
</g>
</g> 
</svg>
